<svg width="42" height="43" viewBox="0 0 42 43" fill="none" xmlns="http://www.w3.org/2000/svg">
<path d="M30.8576 21.9289C36.0648 21.9289 40.2861 26.1502 40.2861 31.3575C40.2861 36.5648 36.0648 40.7861 30.8576 40.7861C25.6503 40.7861 21.429 36.5648 21.429 31.3575C21.429 26.1502 25.6503 21.9289 30.8576 21.9289ZM30.8576 25.3562L30.7035 25.37C30.3536 25.4335 30.0777 25.7094 30.0142 26.0593L30.0004 26.2133L29.9998 30.499L25.7107 30.5004L25.5566 30.5142C25.2067 30.5777 24.9308 30.8536 24.8673 31.2034L24.8535 31.3575L24.8673 31.5116C24.9308 31.8614 25.2067 32.1373 25.5566 32.2008L25.7107 32.2146L30.0015 32.2133L30.0023 36.5063L30.0161 36.6604C30.0796 37.0103 30.3555 37.2862 30.7054 37.3497L30.8595 37.3635L31.0135 37.3497C31.3634 37.2862 31.6393 37.0103 31.7028 36.6604L31.7166 36.5063L31.7158 32.2133L36.0082 32.2146L36.1623 32.2008C36.5122 32.1373 36.7881 31.8614 36.8516 31.5116L36.8654 31.3575L36.8516 31.2034C36.7881 30.8536 36.5122 30.5777 36.1623 30.5142L36.0082 30.5004L31.7141 30.499L31.7147 26.2133L31.7009 26.0593C31.6374 25.7094 31.3615 25.4335 31.0116 25.37L30.8576 25.3562ZM24.7285 5.64844C26.0961 5.64844 27.3615 6.37268 28.0543 7.55193L29.4506 9.92893H33.0004C36.0774 9.92893 38.5718 12.4233 38.5718 15.5004L38.5733 23.3181C37.8118 22.5871 36.9467 21.9633 36.0023 21.4708L36.0004 15.5004C36.0004 13.8435 34.6573 12.5004 33.0004 12.5004H28.7147C28.2588 12.5004 27.837 12.2589 27.6061 11.8659L25.8371 8.85436C25.6062 8.46128 25.1844 8.21987 24.7285 8.21987H18.2102C17.8271 8.21987 17.4676 8.39038 17.2254 8.67894L17.1146 8.83281L15.2389 11.8874C15.0051 12.2683 14.5902 12.5004 14.1433 12.5004H9.85756C8.20071 12.5004 6.85756 13.8435 6.85756 15.5004V31.7861C6.85756 33.4429 8.20071 34.7861 9.85756 34.7861L20.2518 34.7851C20.5473 35.7001 20.9579 36.5634 21.4666 37.3579L9.85756 37.3575C6.78055 37.3575 4.28613 34.8631 4.28613 31.7861V15.5004C4.28613 12.4233 6.78055 9.92893 9.85756 9.92893H13.424L14.9233 7.48727C15.6249 6.3447 16.8694 5.64844 18.2102 5.64844H24.7285ZM21.429 15.0718C24.8606 15.0718 27.7689 17.3124 28.7706 20.4105C27.9126 20.5724 27.09 20.8331 26.3142 21.1799C25.6412 19.1259 23.7082 17.6432 21.429 17.6432C18.5887 17.6432 16.2861 19.9457 16.2861 22.7861C16.2861 25.2364 17.9998 27.2865 20.2941 27.8033C20.0243 28.6033 19.843 29.4469 19.7624 30.3197C16.3032 29.5582 13.7147 26.4744 13.7147 22.7861C13.7147 18.5256 17.1685 15.0718 21.429 15.0718Z" fill="#002D74"/>
</svg>
